<svg width="282" height="102" viewBox="0 0 282 102" fill="none" xmlns="http://www.w3.org/2000/svg">
<rect width="282" height="102" rx="51" fill="#2F2F2F"/>
<path d="M66.375 42.9583H81.2708L66.375 28.0625V42.9583ZM47.4167 24H69.0833L85.3333 40.25V72.75C85.3333 74.1866 84.7626 75.5643 83.7468 76.5802C82.731 77.596 81.3533 78.1667 79.9167 78.1667H47.4167C45.9801 78.1667 44.6023 77.596 43.5865 76.5802C42.5707 75.5643 42 74.1866 42 72.75V29.4167C42 27.9801 42.5707 26.6023 43.5865 25.5865C44.6023 24.5707 45.9801 24 47.4167 24ZM60.7688 52.275C61.8792 54.7125 63.2875 56.7167 64.9125 58.0979L66.0229 58.9646C63.6667 59.3979 60.4167 60.1563 56.9771 61.4833L56.6792 61.5917L58.0333 58.775C59.2521 56.4188 60.1458 54.2792 60.7688 52.275ZM78.3187 62.5938C78.8062 62.1063 79.05 61.4833 79.0771 60.8063C79.1583 60.2646 79.0229 59.75 78.7521 59.3167C77.9667 58.0438 75.9354 57.4479 72.5771 57.4479L69.0833 57.6375L66.7271 56.0667C65.0208 54.6583 63.4771 52.1938 62.3937 49.1333L62.5021 48.7542C63.3958 45.1521 64.2354 40.7917 62.4479 39.0042C62.2293 38.7919 61.9707 38.6251 61.6871 38.5135C61.4035 38.4019 61.1005 38.3478 60.7958 38.3542H60.1458C59.1437 38.3542 58.25 39.4104 58.0062 40.4396C57.0042 44.0417 57.6 46.0188 58.6021 49.2958V49.3229C57.925 51.7063 57.0583 54.4688 55.6771 57.2583L53.0771 62.1333L50.6667 63.4604C47.4167 65.4917 45.8729 67.7667 45.575 69.2021C45.4667 69.7167 45.5208 70.1771 45.7104 70.6646L45.7917 70.8L47.0917 71.6396L48.2833 71.9375C50.4771 71.9375 52.9687 69.3646 56.3271 63.6229L56.8146 63.4333C59.6042 62.5396 63.0708 61.9167 67.7292 61.4021C70.5187 62.7833 73.7958 63.4063 75.8542 63.4063C77.0458 63.4063 77.8583 63.1083 78.3187 62.5938ZM77.2083 60.6708L77.4521 60.9688C77.425 61.2396 77.3437 61.2667 77.2083 61.3208H77.1L76.5854 61.375C75.3396 61.375 73.4167 60.8604 71.4396 59.9938C71.6833 59.7229 71.7917 59.7229 72.0625 59.7229C75.8542 59.7229 76.9375 60.4 77.2083 60.6708ZM52.3729 64.625C50.6125 67.8479 49.0146 69.6354 47.7958 70.0417C47.9312 69.0125 49.15 67.225 51.0729 65.4646L52.3729 64.625ZM60.5521 45.9104C59.9292 43.4729 59.9021 41.4958 60.3625 40.3583L60.5521 40.0333L60.9583 40.1688C61.4187 40.8188 61.4729 41.6854 61.2021 43.1479L61.1208 43.5812L60.6875 45.8021L60.5521 45.9104Z" fill="white"/>
<path d="M111.227 68V33.0909H123.023C125.761 33.0909 128 33.5852 129.739 34.5739C131.489 35.5511 132.784 36.875 133.625 38.5455C134.466 40.2159 134.886 42.0795 134.886 44.1364C134.886 46.1932 134.466 48.0625 133.625 49.7443C132.795 51.4261 131.511 52.767 129.773 53.767C128.034 54.7557 125.807 55.25 123.091 55.25H114.636V51.5H122.955C124.83 51.5 126.335 51.1761 127.472 50.5284C128.608 49.8807 129.432 49.0057 129.943 47.9034C130.466 46.7898 130.727 45.5341 130.727 44.1364C130.727 42.7386 130.466 41.4886 129.943 40.3864C129.432 39.2841 128.602 38.4205 127.455 37.7955C126.307 37.1591 124.784 36.8409 122.886 36.8409H115.455V68H111.227ZM148.855 68.6136C147.196 68.6136 145.69 68.3011 144.338 67.6761C142.986 67.0398 141.912 66.125 141.116 64.9318C140.321 63.7273 139.923 62.2727 139.923 60.5682C139.923 59.0682 140.219 57.8523 140.81 56.9205C141.401 55.9773 142.19 55.2386 143.179 54.7045C144.168 54.1705 145.259 53.7727 146.452 53.5114C147.656 53.2386 148.866 53.0227 150.082 52.8636C151.673 52.6591 152.963 52.5057 153.952 52.4034C154.952 52.2898 155.679 52.1023 156.134 51.8409C156.599 51.5795 156.832 51.125 156.832 50.4773V50.3409C156.832 48.6591 156.372 47.3523 155.452 46.4205C154.543 45.4886 153.162 45.0227 151.31 45.0227C149.389 45.0227 147.884 45.4432 146.793 46.2841C145.702 47.125 144.935 48.0227 144.491 48.9773L140.673 47.6136C141.355 46.0227 142.264 44.7841 143.401 43.8977C144.548 43 145.798 42.375 147.151 42.0227C148.514 41.6591 149.855 41.4773 151.173 41.4773C152.014 41.4773 152.98 41.5795 154.071 41.7841C155.173 41.9773 156.236 42.3807 157.259 42.9943C158.293 43.608 159.151 44.5341 159.832 45.7727C160.514 47.0114 160.855 48.6705 160.855 50.75V68H156.832V64.4545H156.628C156.355 65.0227 155.901 65.6307 155.264 66.2784C154.628 66.9261 153.781 67.4773 152.724 67.9318C151.668 68.3864 150.378 68.6136 148.855 68.6136ZM149.469 65C151.06 65 152.401 64.6875 153.491 64.0625C154.594 63.4375 155.423 62.6307 155.98 61.642C156.548 60.6534 156.832 59.6136 156.832 58.5227V54.8409C156.662 55.0455 156.287 55.233 155.707 55.4034C155.139 55.5625 154.48 55.7045 153.73 55.8295C152.991 55.9432 152.27 56.0455 151.565 56.1364C150.872 56.2159 150.31 56.2841 149.878 56.3409C148.832 56.4773 147.855 56.6989 146.946 57.0057C146.048 57.3011 145.321 57.75 144.764 58.3523C144.219 58.9432 143.946 59.75 143.946 60.7727C143.946 62.1705 144.463 63.2273 145.497 63.9432C146.543 64.6477 147.866 65 149.469 65ZM168.197 77.8182V41.8182H172.084V45.9773H172.561C172.857 45.5227 173.266 44.9432 173.788 44.2386C174.322 43.5227 175.084 42.8864 176.072 42.3295C177.072 41.7614 178.425 41.4773 180.129 41.4773C182.334 41.4773 184.277 42.0284 185.959 43.1307C187.641 44.233 188.953 45.7955 189.896 47.8182C190.839 49.8409 191.311 52.2273 191.311 54.9773C191.311 57.75 190.839 60.1534 189.896 62.1875C188.953 64.2102 187.646 65.7784 185.976 66.892C184.305 67.9943 182.379 68.5455 180.197 68.5455C178.516 68.5455 177.169 68.267 176.158 67.7102C175.146 67.142 174.368 66.5 173.822 65.7841C173.277 65.0568 172.857 64.4545 172.561 63.9773H172.22V77.8182H168.197ZM172.152 54.9091C172.152 56.8864 172.442 58.6307 173.021 60.142C173.601 61.642 174.447 62.8182 175.561 63.6705C176.675 64.5114 178.038 64.9318 179.652 64.9318C181.334 64.9318 182.737 64.4886 183.862 63.6023C184.999 62.7045 185.851 61.5 186.419 59.9886C186.999 58.4659 187.288 56.7727 187.288 54.9091C187.288 53.0682 187.004 51.4091 186.436 49.9318C185.879 48.4432 185.033 47.267 183.896 46.4034C182.771 45.5284 181.357 45.0909 179.652 45.0909C178.016 45.0909 176.641 45.5057 175.527 46.3352C174.413 47.1534 173.572 48.3011 173.004 49.7784C172.436 51.2443 172.152 52.9545 172.152 54.9091ZM208.425 68.5455C205.902 68.5455 203.726 67.9886 201.896 66.875C200.078 65.75 198.675 64.1818 197.686 62.1705C196.709 60.1477 196.22 57.7955 196.22 55.1136C196.22 52.4318 196.709 50.0682 197.686 48.0227C198.675 45.9659 200.05 44.3636 201.811 43.2159C203.584 42.0568 205.652 41.4773 208.016 41.4773C209.379 41.4773 210.726 41.7045 212.055 42.1591C213.385 42.6136 214.595 43.3523 215.686 44.375C216.777 45.3864 217.646 46.7273 218.294 48.3977C218.942 50.0682 219.266 52.125 219.266 54.5682V56.2727H199.084V52.7955H215.175C215.175 51.3182 214.879 50 214.288 48.8409C213.709 47.6818 212.879 46.767 211.8 46.0966C210.732 45.4261 209.47 45.0909 208.016 45.0909C206.413 45.0909 205.027 45.4886 203.857 46.2841C202.697 47.0682 201.805 48.0909 201.18 49.3523C200.555 50.6136 200.243 51.9659 200.243 53.4091V55.7273C200.243 57.7045 200.584 59.3807 201.266 60.7557C201.959 62.1193 202.919 63.1591 204.146 63.875C205.374 64.5795 206.8 64.9318 208.425 64.9318C209.482 64.9318 210.436 64.7841 211.288 64.4886C212.152 64.1818 212.896 63.7273 213.521 63.125C214.146 62.5114 214.629 61.75 214.97 60.8409L218.857 61.9318C218.447 63.25 217.76 64.4091 216.794 65.4091C215.828 66.3977 214.635 67.1705 213.214 67.7273C211.794 68.2727 210.197 68.5455 208.425 68.5455ZM225.385 68V41.8182H229.271V45.7727H229.544C230.021 44.4773 230.885 43.4261 232.135 42.6193C233.385 41.8125 234.794 41.4091 236.362 41.4091C236.658 41.4091 237.027 41.4148 237.47 41.4261C237.913 41.4375 238.249 41.4545 238.476 41.4773V45.5682C238.339 45.5341 238.027 45.483 237.538 45.4148C237.061 45.3352 236.555 45.2955 236.021 45.2955C234.749 45.2955 233.612 45.5625 232.612 46.0966C231.624 46.6193 230.839 47.3466 230.26 48.2784C229.692 49.1989 229.408 50.25 229.408 51.4318V68H225.385Z" fill="white"/>
</svg>
