<svg width="282" height="102" viewBox="0 0 282 102" fill="none" xmlns="http://www.w3.org/2000/svg">
<rect width="282" height="102" rx="51" fill="#2F2F2F"/>
<path d="M63.5 22C59.8886 22 56.3127 22.6892 52.9762 24.0283C49.6398 25.3673 46.6082 27.33 44.0546 29.8043C38.8973 34.8013 36 41.5787 36 48.6455C36 60.4228 43.8925 70.4149 54.81 73.9587C56.185 74.1719 56.625 73.3459 56.625 72.6265V68.1234C49.0075 69.7221 47.385 64.5529 47.385 64.5529C46.12 61.462 44.3325 60.636 44.3325 60.636C41.83 58.984 44.525 59.0372 44.525 59.0372C47.275 59.2238 48.7325 61.7817 48.7325 61.7817C51.125 65.8318 55.1675 64.6328 56.735 63.9933C56.9825 62.2614 57.6975 61.0889 58.4675 60.4228C52.3625 59.7567 45.955 57.4652 45.955 47.3132C45.955 44.3556 47 41.9841 48.7875 40.0923C48.5125 39.4262 47.55 36.655 49.0625 33.0579C49.0625 33.0579 51.3725 32.3385 56.625 35.7757C58.7975 35.1895 61.1625 34.8964 63.5 34.8964C65.8375 34.8964 68.2025 35.1895 70.375 35.7757C75.6275 32.3385 77.9375 33.0579 77.9375 33.0579C79.45 36.655 78.4875 39.4262 78.2125 40.0923C80 41.9841 81.045 44.3556 81.045 47.3132C81.045 57.4918 74.61 59.73 68.4775 60.3962C69.4675 61.2222 70.375 62.8476 70.375 65.3256V72.6265C70.375 73.3459 70.815 74.1985 72.2175 73.9587C83.135 70.3882 91 60.4228 91 48.6455C91 45.1464 90.2887 41.6815 88.9067 38.4487C87.5247 35.2159 85.499 32.2785 82.9454 29.8043C80.3918 27.33 77.3602 25.3673 74.0238 24.0283C70.6873 22.6892 67.1114 22 63.5 22Z" fill="white"/>
<path d="M145.318 44H141.091C140.841 42.7841 140.403 41.7159 139.778 40.7955C139.165 39.875 138.415 39.1023 137.528 38.4773C136.653 37.8409 135.682 37.3636 134.614 37.0455C133.545 36.7273 132.432 36.5682 131.273 36.5682C129.159 36.5682 127.244 37.1023 125.528 38.1705C123.824 39.2386 122.466 40.8125 121.455 42.892C120.455 44.9716 119.955 47.5227 119.955 50.5455C119.955 53.5682 120.455 56.1193 121.455 58.1989C122.466 60.2784 123.824 61.8523 125.528 62.9205C127.244 63.9886 129.159 64.5227 131.273 64.5227C132.432 64.5227 133.545 64.3636 134.614 64.0455C135.682 63.7273 136.653 63.2557 137.528 62.6307C138.415 61.9943 139.165 61.2159 139.778 60.2955C140.403 59.3636 140.841 58.2955 141.091 57.0909H145.318C145 58.875 144.42 60.4716 143.58 61.8807C142.739 63.2898 141.693 64.4886 140.443 65.4773C139.193 66.4545 137.79 67.1989 136.233 67.7102C134.688 68.2216 133.034 68.4773 131.273 68.4773C128.295 68.4773 125.648 67.75 123.33 66.2955C121.011 64.8409 119.188 62.7727 117.858 60.0909C116.528 57.4091 115.864 54.2273 115.864 50.5455C115.864 46.8636 116.528 43.6818 117.858 41C119.188 38.3182 121.011 36.25 123.33 34.7955C125.648 33.3409 128.295 32.6136 131.273 32.6136C133.034 32.6136 134.688 32.8693 136.233 33.3807C137.79 33.892 139.193 34.642 140.443 35.6307C141.693 36.608 142.739 37.8011 143.58 39.2102C144.42 40.608 145 42.2045 145.318 44ZM162.24 68.5455C159.876 68.5455 157.803 67.983 156.018 66.858C154.246 65.733 152.859 64.1591 151.859 62.1364C150.871 60.1136 150.376 57.75 150.376 55.0455C150.376 52.3182 150.871 49.9375 151.859 47.9034C152.859 45.8693 154.246 44.2898 156.018 43.1648C157.803 42.0398 159.876 41.4773 162.24 41.4773C164.604 41.4773 166.672 42.0398 168.445 43.1648C170.229 44.2898 171.615 45.8693 172.604 47.9034C173.604 49.9375 174.104 52.3182 174.104 55.0455C174.104 57.75 173.604 60.1136 172.604 62.1364C171.615 64.1591 170.229 65.733 168.445 66.858C166.672 67.983 164.604 68.5455 162.24 68.5455ZM162.24 64.9318C164.036 64.9318 165.513 64.4716 166.672 63.5511C167.831 62.6307 168.689 61.4205 169.246 59.9205C169.803 58.4205 170.081 56.7955 170.081 55.0455C170.081 53.2955 169.803 51.6648 169.246 50.1534C168.689 48.642 167.831 47.4205 166.672 46.4886C165.513 45.5568 164.036 45.0909 162.24 45.0909C160.445 45.0909 158.967 45.5568 157.808 46.4886C156.649 47.4205 155.791 48.642 155.234 50.1534C154.678 51.6648 154.399 53.2955 154.399 55.0455C154.399 56.7955 154.678 58.4205 155.234 59.9205C155.791 61.4205 156.649 62.6307 157.808 63.5511C158.967 64.4716 160.445 64.9318 162.24 64.9318ZM190.131 68.5455C187.949 68.5455 186.023 67.9943 184.352 66.892C182.682 65.7784 181.375 64.2102 180.432 62.1875C179.489 60.1534 179.017 57.75 179.017 54.9773C179.017 52.2273 179.489 49.8409 180.432 47.8182C181.375 45.7955 182.688 44.233 184.369 43.1307C186.051 42.0284 187.994 41.4773 190.199 41.4773C191.903 41.4773 193.25 41.7614 194.239 42.3295C195.239 42.8864 196 43.5227 196.523 44.2386C197.057 44.9432 197.472 45.5227 197.767 45.9773H198.108V33.0909H202.131V68H198.244V63.9773H197.767C197.472 64.4545 197.051 65.0568 196.506 65.7841C195.96 66.5 195.182 67.142 194.17 67.7102C193.159 68.267 191.813 68.5455 190.131 68.5455ZM190.676 64.9318C192.29 64.9318 193.653 64.5114 194.767 63.6705C195.881 62.8182 196.727 61.642 197.307 60.142C197.886 58.6307 198.176 56.8864 198.176 54.9091C198.176 52.9545 197.892 51.2443 197.324 49.7784C196.756 48.3011 195.915 47.1534 194.801 46.3352C193.688 45.5057 192.313 45.0909 190.676 45.0909C188.972 45.0909 187.551 45.5284 186.415 46.4034C185.29 47.267 184.443 48.4432 183.875 49.9318C183.318 51.4091 183.04 53.0682 183.04 54.9091C183.04 56.7727 183.324 58.4659 183.892 59.9886C184.472 61.5 185.324 62.7045 186.449 63.6023C187.585 64.4886 188.994 64.9318 190.676 64.9318ZM221.034 68.5455C218.511 68.5455 216.335 67.9886 214.506 66.875C212.688 65.75 211.284 64.1818 210.295 62.1705C209.318 60.1477 208.83 57.7955 208.83 55.1136C208.83 52.4318 209.318 50.0682 210.295 48.0227C211.284 45.9659 212.659 44.3636 214.42 43.2159C216.193 42.0568 218.261 41.4773 220.625 41.4773C221.989 41.4773 223.335 41.7045 224.665 42.1591C225.994 42.6136 227.205 43.3523 228.295 44.375C229.386 45.3864 230.256 46.7273 230.903 48.3977C231.551 50.0682 231.875 52.125 231.875 54.5682V56.2727H211.693V52.7955H227.784C227.784 51.3182 227.489 50 226.898 48.8409C226.318 47.6818 225.489 46.767 224.409 46.0966C223.341 45.4261 222.08 45.0909 220.625 45.0909C219.023 45.0909 217.636 45.4886 216.466 46.2841C215.307 47.0682 214.415 48.0909 213.79 49.3523C213.165 50.6136 212.852 51.9659 212.852 53.4091V55.7273C212.852 57.7045 213.193 59.3807 213.875 60.7557C214.568 62.1193 215.528 63.1591 216.756 63.875C217.983 64.5795 219.409 64.9318 221.034 64.9318C222.091 64.9318 223.045 64.7841 223.898 64.4886C224.761 64.1818 225.506 63.7273 226.131 63.125C226.756 62.5114 227.239 61.75 227.58 60.8409L231.466 61.9318C231.057 63.25 230.369 64.4091 229.403 65.4091C228.438 66.3977 227.244 67.1705 225.824 67.7273C224.403 68.2727 222.807 68.5455 221.034 68.5455Z" fill="white"/>
</svg>
